<svg xmlns="http://www.w3.org/2000/svg" xmlns:xlink="http://www.w3.org/1999/xlink" viewBox="0 0 562.96 168.33"><defs><linearGradient id="a" x1="181.44" y1="110.58" x2="195.97" y2="110.58" gradientUnits="userSpaceOnUse"><stop offset="0" stop-color="#efbb6b"/><stop offset="1" stop-color="#b58d4b"/></linearGradient><linearGradient id="b" x1="207.34" y1="110.56" x2="219.06" y2="110.56" xlink:href="#a"/><linearGradient id="c" x1="229.15" y1="110.56" x2="246.42" y2="110.56" xlink:href="#a"/><linearGradient id="d" x1="257.13" y1="110.56" x2="268.71" y2="110.56" xlink:href="#a"/><linearGradient id="e" x1="295.35" y1="110.56" x2="307.07" y2="110.56" xlink:href="#a"/><linearGradient id="f" x1="317.83" y1="110.56" x2="331.62" y2="110.56" xlink:href="#a"/><linearGradient id="g" x1="341.45" y1="110.56" x2="354.89" y2="110.56" xlink:href="#a"/><linearGradient id="h" x1="362.59" y1="110.56" x2="379.86" y2="110.56" xlink:href="#a"/><linearGradient id="i" x1="387.56" y1="110.56" x2="401.01" y2="110.56" xlink:href="#a"/><linearGradient id="j" x1="411.98" y1="110.56" x2="423.69" y2="110.56" xlink:href="#a"/><linearGradient id="k" x1="181.44" y1="63.74" x2="203.29" y2="63.74" xlink:href="#a"/><linearGradient id="l" x1="220.18" y1="68.37" x2="243.28" y2="68.37" xlink:href="#a"/><linearGradient id="m" x1="257.66" y1="68.15" x2="284.32" y2="68.15" xlink:href="#a"/><linearGradient id="n" x1="298.45" y1="68.37" x2="321.55" y2="68.37" xlink:href="#a"/><linearGradient id="o" x1="338.78" y1="67.85" x2="354.87" y2="67.85" xlink:href="#a"/><linearGradient id="p" x1="365.64" y1="73.89" x2="394.26" y2="73.89" xlink:href="#a"/><linearGradient id="q" x1="416.26" y1="63.74" x2="450.64" y2="63.74" xlink:href="#a"/><linearGradient id="r" x1="461.66" y1="67.85" x2="484.46" y2="67.85" xlink:href="#a"/><linearGradient id="s" x1="494.88" y1="68.07" x2="520.24" y2="68.07" xlink:href="#a"/><linearGradient id="t" x1="49.83" y1="82.91" x2="156.98" y2="82.91" xlink:href="#a"/><linearGradient id="u" x1="36.09" y1="82.91" x2="170.71" y2="82.91" xlink:href="#a"/></defs><path d="M195.23,107.19a5.33,5.33,0,0,1-1,3.11,6,6,0,0,1-2.59,2.12l4.33,7.47-3.48,0-3.93-7h-4.25v7h-2.87v-18.6h7.92a5.84,5.84,0,0,1,2.8.72,6,6,0,0,1,2.21,2A5.7,5.7,0,0,1,195.23,107.19ZM188.88,104h-4.57v6.08h5.31a2.37,2.37,0,0,0,2-.9,3.25,3.25,0,0,0,.71-2,2.85,2.85,0,0,0-1-2.3A3.72,3.72,0,0,0,188.88,104Z" fill="url(#a)"/><path d="M207.34,101.26h11.72V104h-8.85v4.91h7.39v2.76h-7.39v5.4h8.85v2.76H207.34Z" fill="url(#b)"/><path d="M243.37,119.86l-1.76-4.62h-7.78l-1.76,4.62h-2.92l7.2-18.6h2.92l7.15,18.6Zm-7.07-11.1-1.41,3.72h5.69l-1.47-3.83q-.35-.93-.69-2l-.69-2.16-.73,2.23C236.76,107.45,236.53,108.14,236.3,108.76Z" fill="url(#c)"/><path d="M268.71,117.1v2.76H257.13v-18.6H260V117.1Z" fill="url(#d)"/><path d="M295.35,101.26h11.72V104h-8.85v4.91h7.39v2.76h-7.39v5.4h8.85v2.76H295.35Z" fill="url(#e)"/><path d="M319.79,114.25a10.21,10.21,0,0,0,2.28,2.44,5.09,5.09,0,0,0,3.06.86,5.23,5.23,0,0,0,1.73-.29,3.54,3.54,0,0,0,1.36-.85,1.88,1.88,0,0,0,.53-1.33,2.34,2.34,0,0,0-1.13-2.07,8.89,8.89,0,0,0-3.18-1.15A9.11,9.11,0,0,1,320.3,110a4.73,4.73,0,0,1-1.54-3.81,4.4,4.4,0,0,1,.89-2.77,5.68,5.68,0,0,1,2.35-1.8,7.73,7.73,0,0,1,3.16-.64,7.93,7.93,0,0,1,3.8.85,6.26,6.26,0,0,1,2.5,2.42l-2,2a6.13,6.13,0,0,0-1.81-1.94,4.4,4.4,0,0,0-2.55-.74,4.31,4.31,0,0,0-2.46.67,2.34,2.34,0,0,0,.06,3.86,9.52,9.52,0,0,0,2.77,1,13,13,0,0,1,3,1,6.88,6.88,0,0,1,2.3,1.72,3.79,3.79,0,0,1,.89,2.53,5.33,5.33,0,0,1-1.81,4.23,7.37,7.37,0,0,1-5,1.57,9,9,0,0,1-3.92-.85,8.07,8.07,0,0,1-3.09-2.77Z" fill="url(#f)"/><path d="M346.65,119.86V104h-5.2v-2.77h13.44V104h-5.37v15.83Z" fill="url(#g)"/><path d="M376.8,119.86l-1.75-4.62h-7.78l-1.76,4.62h-2.92l7.2-18.6h2.92l7.15,18.6Zm-7.06-11.1-1.41,3.72H374l-1.46-3.83q-.35-.93-.69-2t-.69-2.16c-.25.74-.49,1.49-.73,2.23S370,108.14,369.74,108.76Z" fill="url(#h)"/><path d="M392.77,119.86V104h-5.21v-2.77H401V104h-5.37v15.83Z" fill="url(#i)"/><path d="M412,101.26h11.71V104h-8.84v4.91h7.38v2.76h-7.38v5.4h8.84v2.76H412Z" fill="url(#j)"/><path d="M203.29,76.07v5.21H181.44V46.2h5.41V76.07Z" fill="url(#k)"/><path d="M238.11,70.8V55h5.17V81.28h-5.17V77.07a10.53,10.53,0,0,1-3.38,3.28,9.67,9.67,0,0,1-5.33,1.43A8.62,8.62,0,0,1,222.73,79q-2.55-2.81-2.55-7.76V55h5.16V69.8a10.86,10.86,0,0,0,.62,3.71,5.8,5.8,0,0,0,2,2.73,5.71,5.71,0,0,0,3.53,1,6.84,6.84,0,0,0,4.66-1.71A6,6,0,0,0,238.11,70.8Z" fill="url(#l)"/><path d="M257.71,81.28,267.83,68.1,257.66,55h6.51l7.12,9.27,6-9.27h6.11l-9.32,13,10.23,13.33H278l-7.21-9.37-7,9.42Z" fill="url(#m)"/><path d="M316.39,70.8V55h5.16V81.28h-5.16V77.07A10.67,10.67,0,0,1,313,80.35a9.67,9.67,0,0,1-5.33,1.43A8.62,8.62,0,0,1,301,79q-2.55-2.81-2.55-7.76V55h5.16V69.8a10.86,10.86,0,0,0,.62,3.71,5.8,5.8,0,0,0,2,2.73,5.71,5.71,0,0,0,3.53,1,6.82,6.82,0,0,0,4.66-1.71A6,6,0,0,0,316.39,70.8Z" fill="url(#n)"/><path d="M353.52,60.53a6.07,6.07,0,0,0-1.23-.42,6.29,6.29,0,0,0-1.53-.18,6.69,6.69,0,0,0-3.16.83A7.15,7.15,0,0,0,345,63.11a6.4,6.4,0,0,0-1,3.64V81.28h-5.22V55H344v5a9.65,9.65,0,0,1,3.33-4A8.09,8.09,0,0,1,352,54.42a6.61,6.61,0,0,1,2.86.5Z" fill="url(#o)"/><path d="M373.41,92.8l4.31-9.87.15-.35L365.64,55h6l8.21,19.34a4.61,4.61,0,0,1,.31.75c.1.3.21.64.35,1L380.9,75c.12-.35.24-.69.38-1l6.86-19h6.12L383.43,81.28,379,92.8Z" fill="url(#p)"/><path d="M450.64,63.74a19.62,19.62,0,0,1-1.26,7.09,17.08,17.08,0,0,1-3.58,5.74,16.66,16.66,0,0,1-12.35,5.21,17.1,17.1,0,0,1-6.92-1.38,16.59,16.59,0,0,1-5.46-3.83,17.35,17.35,0,0,1-3.56-5.74,20.73,20.73,0,0,1,0-14.18,17.35,17.35,0,0,1,3.56-5.74,16.45,16.45,0,0,1,5.46-3.83,17.1,17.1,0,0,1,6.92-1.38,16.93,16.93,0,0,1,6.89,1.38,16.65,16.65,0,0,1,5.46,3.83,17.08,17.08,0,0,1,3.58,5.74A19.62,19.62,0,0,1,450.64,63.74Zm-5.52,0a14,14,0,0,0-1.5-6.54,11.75,11.75,0,0,0-4.13-4.56,11.79,11.79,0,0,0-12.13,0,11.62,11.62,0,0,0-4.11,4.56,15.19,15.19,0,0,0,0,13.08,11.62,11.62,0,0,0,4.11,4.56,11.79,11.79,0,0,0,12.13,0,11.7,11.7,0,0,0,4.13-4.59A14,14,0,0,0,445.12,63.74Z" fill="url(#q)"/><path d="M475.44,54.42A9.08,9.08,0,0,1,481,55.87a7.6,7.6,0,0,1,2.73,3.91,18,18,0,0,1,.78,5.46v16H479.3V65.59a10.81,10.81,0,0,0-.5-3.4,4.61,4.61,0,0,0-1.71-2.36,5.07,5.07,0,0,0-3.35-.7,7.24,7.24,0,0,0-3.56.85,6.63,6.63,0,0,0-2.46,2.26,5.61,5.61,0,0,0-.9,3.1V81.28h-5.16V55h5.16v4.16a10.83,10.83,0,0,1,3.51-3.28A9.43,9.43,0,0,1,475.44,54.42Z" fill="url(#r)"/><path d="M519.08,77.82H519a15.74,15.74,0,0,1-10.27,4,14.77,14.77,0,0,1-7.24-1.73,12.41,12.41,0,0,1-4.88-4.76,13.51,13.51,0,0,1-1.76-6.89,14.51,14.51,0,0,1,1.86-7.54,12.74,12.74,0,0,1,4.91-4.81,13.59,13.59,0,0,1,6.66-1.68,11.36,11.36,0,0,1,6,1.63,11.9,11.9,0,0,1,4.31,4.48,13.41,13.41,0,0,1,1.61,6.67l0,2.2H500A8.46,8.46,0,0,0,503,75a9.45,9.45,0,0,0,6.29,2.08,8.49,8.49,0,0,0,4.46-1,19.84,19.84,0,0,0,2.81-2ZM508.31,59.13a9.52,9.52,0,0,0-5.16,1.38,6.91,6.91,0,0,0-2.91,4.73H515v-.35a5.8,5.8,0,0,0-1.13-3,6.92,6.92,0,0,0-5.54-2.75Z" fill="url(#s)"/><path d="M103.78,97.73c-4.16,3-8,6-12,8.71a51.26,51.26,0,0,1-8.1,4.5c-7.21,3.13-10.35,1.63-13.72-7.2-1.44,1.84-2.46,3.38-3.71,4.69C61.89,113,57.5,117.53,53,122c-.78.77-2.12,1-3.19,1.43.37-1.11.43-2.51,1.16-3.26q8.2-8.44,16.67-16.64c1.76-1.71,2.33-3.6,2.86-6a146.22,146.22,0,0,1,5.84-20.63c3.11-8.15,6.93-16,10.75-23.89a40.41,40.41,0,0,1,5.79-8.4,5.87,5.87,0,0,1,7-1.61c2.63,1.12,3.32,3.64,2.91,6.13a62.78,62.78,0,0,1-2.71,11.55C94.68,75.32,85.46,87.6,75.06,99c-2.39,2.61-2,5-.59,7.5a4.65,4.65,0,0,0,6.35,2,95.07,95.07,0,0,0,12.75-6.92c4.69-3.11,9-6.83,13.49-10.2s9.21-1.71,10.52,3.78c.53,2.18.31,4.54.46,7.25,2-.36,4-.68,6-1.1a18.24,18.24,0,0,1,13.73,2,19.45,19.45,0,0,0,16,2c.94-.27,2.13.33,3.2.53-.79.71-1.47,1.79-2.39,2.08-6.27,2-12.39,2.23-18-2-3.24-2.47-7-2.63-10.77-2-1.63.26-3.24.73-4.88,1a9.54,9.54,0,0,0-7.26,4.42,14.34,14.34,0,0,1-6.25,4.61c-4,1.69-6.72-.32-6.22-4.65C101.66,105.5,102.84,101.81,103.78,97.73Zm-30.27-1a19.23,19.23,0,0,0,2-1.54A101.42,101.42,0,0,0,99,55.22c.43-1.36,1-2.9.75-4.19a7.69,7.69,0,0,0-2.45-4.24c-.51-.39-3,.71-3.63,1.72a134.6,134.6,0,0,0-7.16,13c-2.28,4.78-4.08,9.78-6.23,14.62C77.41,82.59,74.77,89.1,73.51,96.76Zm42.37,1.4c-1.33-1.63-2.36-3.8-4.07-4.71s-4.6,3.11-4.69,5.86c-.08,2.57,1.55,3.87,4.57,4C115.1,103.4,114.79,100.9,115.88,98.16Zm-4.43,8.53-6.56-3.36c-.5,2.7-2.09,5.74.51,7.55.78.54,3.92-2.29,6-3.6C111.47,107.2,111.43,106.88,111.45,106.69Z" fill="url(#t)"/><rect x="38.59" y="21.97" width="129.62" height="121.89" fill="none" stroke-miterlimit="10" stroke-width="5" stroke="url(#u)"/></svg>