<svg xmlns="http://www.w3.org/2000/svg" xmlns:xlink="http://www.w3.org/1999/xlink" viewBox="0 0 562.96 385.44"><defs><linearGradient id="a" x1="122.23" y1="348.66" x2="144.11" y2="348.66" gradientUnits="userSpaceOnUse"><stop offset="0" stop-color="#efbb6b"/><stop offset="1" stop-color="#b58d4b"/></linearGradient><linearGradient id="b" x1="161.23" y1="348.64" x2="178.87" y2="348.64" xlink:href="#a"/><linearGradient id="c" x1="194.07" y1="348.64" x2="220.07" y2="348.64" xlink:href="#a"/><linearGradient id="d" x1="236.19" y1="348.64" x2="253.63" y2="348.64" xlink:href="#a"/><linearGradient id="e" x1="293.75" y1="348.64" x2="311.39" y2="348.64" xlink:href="#a"/><linearGradient id="f" x1="327.59" y1="348.64" x2="348.35" y2="348.64" xlink:href="#a"/><linearGradient id="g" x1="363.15" y1="348.64" x2="383.39" y2="348.64" xlink:href="#a"/><linearGradient id="h" x1="394.99" y1="348.64" x2="420.99" y2="348.64" xlink:href="#a"/><linearGradient id="i" x1="432.59" y1="348.64" x2="452.83" y2="348.64" xlink:href="#a"/><linearGradient id="j" x1="469.35" y1="348.64" x2="486.99" y2="348.64" xlink:href="#a"/><linearGradient id="k" x1="27.61" y1="274.16" x2="60.5" y2="274.16" xlink:href="#a"/><linearGradient id="l" x1="85.93" y1="281.14" x2="120.71" y2="281.14" xlink:href="#a"/><linearGradient id="m" x1="142.37" y1="280.8" x2="182.51" y2="280.8" xlink:href="#a"/><linearGradient id="n" x1="203.78" y1="281.14" x2="238.57" y2="281.14" xlink:href="#a"/><linearGradient id="o" x1="264.52" y1="280.35" x2="288.74" y2="280.35" xlink:href="#a"/><linearGradient id="p" x1="304.96" y1="289.44" x2="348.04" y2="289.44" xlink:href="#a"/><linearGradient id="q" x1="381.18" y1="274.17" x2="432.94" y2="274.17" xlink:href="#a"/><linearGradient id="r" x1="449.53" y1="280.35" x2="483.86" y2="280.35" xlink:href="#a"/><linearGradient id="s" x1="499.56" y1="280.69" x2="537.73" y2="280.69" xlink:href="#a"/><linearGradient id="t" x1="203.59" y1="116.54" x2="364.92" y2="116.54" xlink:href="#a"/><linearGradient id="u" x1="184.17" y1="116.54" x2="384.34" y2="116.54" xlink:href="#a"/></defs><path d="M143,343.56a8,8,0,0,1-1.5,4.68,9,9,0,0,1-3.9,3.2l6.52,11.24-5.24,0L133,352.13h-6.4v10.51h-4.32v-28h11.92a9.07,9.07,0,0,1,7.54,4.17A8.58,8.58,0,0,1,143,343.56Zm-9.56-4.75h-6.88V348h8a3.56,3.56,0,0,0,3-1.37,4.9,4.9,0,0,0,1.06-3.08,4.27,4.27,0,0,0-1.52-3.46A5.58,5.58,0,0,0,133.43,338.81Z" fill="url(#a)"/><path d="M161.23,334.64h17.64v4.17H165.55v7.39h11.12v4.16H165.55v8.12h13.32v4.16H161.23Z" fill="url(#b)"/><path d="M215.47,362.64l-2.64-7H201.11l-2.64,7h-4.4l10.84-28h4.4l10.76,28Zm-10.64-16.71-2.12,5.59h8.56l-2.2-5.75c-.35-.94-.7-1.95-1-3s-.7-2.16-1-3.26c-.38,1.12-.74,2.25-1.1,3.37S205.17,345,204.83,345.93Z" fill="url(#c)"/><path d="M253.63,358.48v4.16H236.19v-28h4.32v23.84Z" fill="url(#d)"/><path d="M293.75,334.64h17.64v4.17H298.07v7.39h11.12v4.16H298.07v8.12h13.32v4.16H293.75Z" fill="url(#e)"/><path d="M330.55,354.2a14.85,14.85,0,0,0,3.42,3.66,7.59,7.59,0,0,0,4.62,1.3,7.84,7.84,0,0,0,2.6-.43,5.21,5.21,0,0,0,2-1.29,2.79,2.79,0,0,0,.8-2,3.55,3.55,0,0,0-1.7-3.12,13.86,13.86,0,0,0-4.78-1.72,13.55,13.55,0,0,1-6.24-2.78,7.09,7.09,0,0,1-2.32-5.73,6.6,6.6,0,0,1,1.34-4.16,8.75,8.75,0,0,1,3.54-2.73,11.74,11.74,0,0,1,4.76-1,12,12,0,0,1,5.72,1.28,9.41,9.41,0,0,1,3.76,3.64l-3,3a9.41,9.41,0,0,0-2.72-2.92,6.72,6.72,0,0,0-3.84-1.11,6.49,6.49,0,0,0-3.7,1,3.25,3.25,0,0,0-1.5,2.83,3.19,3.19,0,0,0,1.58,3,13.73,13.73,0,0,0,4.18,1.5,20.15,20.15,0,0,1,4.48,1.49,10,10,0,0,1,3.46,2.58,5.7,5.7,0,0,1,1.34,3.81,8,8,0,0,1-2.72,6.36,11,11,0,0,1-7.48,2.37,13.47,13.47,0,0,1-5.9-1.28,12.14,12.14,0,0,1-4.66-4.17Z" fill="url(#f)"/><path d="M371,362.64V338.81h-7.84v-4.17h20.24v4.17h-8.08v23.83Z" fill="url(#g)"/><path d="M416.39,362.64l-2.64-7H402l-2.64,7H395l10.84-28h4.4l10.76,28Zm-10.64-16.71-2.12,5.59h8.56l-2.2-5.75c-.35-.94-.7-1.95-1-3s-.7-2.16-1-3.26c-.38,1.12-.74,2.25-1.1,3.37S406.09,345,405.75,345.93Z" fill="url(#h)"/><path d="M440.43,362.64V338.81h-7.84v-4.17h20.24v4.17h-8.08v23.83Z" fill="url(#i)"/><path d="M469.35,334.64H487v4.17H473.67v7.39h11.12v4.16H473.67v8.12H487v4.16H469.35Z" fill="url(#j)"/><path d="M60.5,292.73v7.84H27.61V247.76h8.15v45Z" fill="url(#k)"/><path d="M112.94,284.8V261h7.77v39.61h-7.77v-6.34a16,16,0,0,1-5.09,4.95,14.63,14.63,0,0,1-8,2.15,12.92,12.92,0,0,1-10-4.23q-3.86-4.22-3.85-11.69V261H93.7v22.33a16,16,0,0,0,1,5.59,8.26,8.26,0,0,0,8.33,5.66,10.33,10.33,0,0,0,7-2.57A9,9,0,0,0,112.94,284.8Z" fill="url(#l)"/><path d="M142.44,300.57l15.24-19.84L142.37,261h9.81l10.71,14,9.05-14h9.21l-14,19.54,15.4,20.07H173l-10.86-14.11-10.57,14.19Z" fill="url(#m)"/><path d="M230.79,284.8V261h7.78v39.61h-7.78v-6.34a15.89,15.89,0,0,1-5.09,4.95,14.62,14.62,0,0,1-8,2.15,12.94,12.94,0,0,1-10-4.23q-3.84-4.22-3.85-11.69V261h7.78v22.33a16,16,0,0,0,.94,5.59,8.29,8.29,0,0,0,8.34,5.66,10.32,10.32,0,0,0,7-2.57A9,9,0,0,0,230.79,284.8Z" fill="url(#n)"/><path d="M286.7,269.34a9.09,9.09,0,0,0-1.84-.65,10.16,10.16,0,0,0-2.31-.26,10,10,0,0,0-4.75,1.25,10.79,10.79,0,0,0-3.89,3.54,9.6,9.6,0,0,0-1.54,5.47v21.88h-7.85V261h7.85v7.47a14.52,14.52,0,0,1,5-6,12.13,12.13,0,0,1,7.05-2.34,9.74,9.74,0,0,1,4.3.76Z" fill="url(#o)"/><path d="M316.66,317.93l6.49-14.87.22-.53L305,261H314l12.37,29.13a8.27,8.27,0,0,1,.45,1.13c.15.45.33.95.53,1.51.2-.56.39-1.1.57-1.63s.36-1,.56-1.54L338.84,261H348l-16.29,39.61L325,317.93Z" fill="url(#p)"/><path d="M432.94,274.17a29.6,29.6,0,0,1-1.89,10.67,25.68,25.68,0,0,1-5.4,8.64,25,25,0,0,1-8.22,5.77,25.34,25.34,0,0,1-10.37,2.08,25.65,25.65,0,0,1-10.42-2.08,24.51,24.51,0,0,1-8.22-5.77,26.06,26.06,0,0,1-5.36-8.64,31.25,31.25,0,0,1,0-21.35,26.06,26.06,0,0,1,5.36-8.64,24.65,24.65,0,0,1,8.22-5.77A25.65,25.65,0,0,1,407.06,247a25.08,25.08,0,0,1,18.59,7.85,25.68,25.68,0,0,1,5.4,8.64A29.61,29.61,0,0,1,432.94,274.17Zm-8.3,0a20.94,20.94,0,0,0-2.27-9.85,17.73,17.73,0,0,0-6.22-6.87,17.8,17.8,0,0,0-18.26,0,17.43,17.43,0,0,0-6.19,6.87,22.94,22.94,0,0,0,0,19.69,17.43,17.43,0,0,0,6.19,6.87,17.8,17.8,0,0,0,18.26,0,17.64,17.64,0,0,0,6.22-6.91A21,21,0,0,0,424.64,274.17Z" fill="url(#q)"/><path d="M470.28,260.13q5.36,0,8.3,2.19a11.43,11.43,0,0,1,4.11,5.88,27.23,27.23,0,0,1,1.17,8.23v24.14h-7.77V277a16.28,16.28,0,0,0-.75-5.13,6.93,6.93,0,0,0-2.57-3.55,7.69,7.69,0,0,0-5-1.06,10.9,10.9,0,0,0-5.36,1.29,10,10,0,0,0-3.7,3.39,8.52,8.52,0,0,0-1.35,4.68v24h-7.78V261h7.78v6.26a16.41,16.41,0,0,1,5.28-4.94A14.32,14.32,0,0,1,470.28,260.13Z" fill="url(#r)"/><path d="M536,295.37h-.08a21.82,21.82,0,0,1-6.64,4.15,23.32,23.32,0,0,1-19.73-.8,18.81,18.81,0,0,1-7.35-7.16,20.36,20.36,0,0,1-2.64-10.38,21.9,21.9,0,0,1,2.79-11.35,19.26,19.26,0,0,1,7.39-7.25,20.56,20.56,0,0,1,10-2.52,17.17,17.17,0,0,1,9.05,2.45,17.92,17.92,0,0,1,6.49,6.75,20.16,20.16,0,0,1,2.41,10l-.07,3.32H507.33a12.65,12.65,0,0,0,4.41,8.48,14.23,14.23,0,0,0,9.47,3.13,12.93,12.93,0,0,0,6.72-1.54,32.21,32.21,0,0,0,4.22-3Zm-16.22-28.15A14.43,14.43,0,0,0,512,269.3q-3.31,2.07-4.37,7.13h22.18v-.53a8.67,8.67,0,0,0-1.7-4.53,10.41,10.41,0,0,0-8.33-4.15Z" fill="url(#s)"/><path d="M284.82,138.84c-6.25,4.58-12,9.06-18.07,13.13a77.4,77.4,0,0,1-12.21,6.77c-10.85,4.71-15.58,2.46-20.65-10.84-2.17,2.77-3.71,5.08-5.59,7.07-6.55,6.87-13.16,13.69-19.91,20.36-1.17,1.16-3.18,1.46-4.8,2.15.55-1.66.64-3.78,1.74-4.91q12.36-12.72,25.1-25c2.65-2.58,3.51-5.42,4.31-9a221.51,221.51,0,0,1,8.8-31.07c4.67-12.27,10.44-24.14,16.19-36a60.41,60.41,0,0,1,8.71-12.64A8.84,8.84,0,0,1,279,56.39c4,1.7,5,5.48,4.39,9.24A94.87,94.87,0,0,1,279.27,83c-8.15,22.09-22,40.59-37.7,57.79-3.58,3.94-3,7.49-.88,11.29s6,4.66,9.56,3a142.34,142.34,0,0,0,19.21-10.41c7.06-4.68,13.51-10.28,20.31-15.36s13.86-2.57,15.84,5.69c.79,3.29.46,6.84.68,10.93,3-.55,6.06-1,9.07-1.66,7.28-1.53,14.09-.88,20.67,3.07a29.26,29.26,0,0,0,24.08,3c1.41-.41,3.2.5,4.81.8-1.19,1.07-2.2,2.69-3.59,3.14-9.44,3.06-18.66,3.36-27.07-3.08-4.88-3.73-10.46-4-16.22-3.05-2.46.39-4.88,1.1-7.35,1.42a14.38,14.38,0,0,0-10.93,6.66c-2.08,3.07-5.88,5.46-9.42,6.94-6.08,2.54-10.11-.48-9.36-7C281.64,150.55,283.42,145,284.82,138.84Zm-45.58-1.45a28.16,28.16,0,0,0,3-2.32,152.78,152.78,0,0,0,35.32-60.23c.65-2,1.55-4.37,1.14-6.3a11.6,11.6,0,0,0-3.7-6.38c-.77-.6-4.52,1.05-5.47,2.58A205.73,205.73,0,0,0,258.8,84.32c-3.43,7.19-6.14,14.72-9.37,22C245.12,116.05,241.14,125.85,239.24,137.39Zm63.8,2.1c-2-2.44-3.55-5.71-6.12-7.09-2.4-1.29-6.93,4.69-7.06,8.82-.13,3.87,2.33,5.84,6.88,6C301.87,147.39,301.41,143.62,303,139.49Zm-6.66,12.85-9.88-5.05c-.75,4.06-3.15,8.64.76,11.36,1.17.82,5.9-3.45,9-5.43C296.4,153.11,296.34,152.63,296.38,152.34Z" fill="url(#t)"/><rect x="186.67" y="24.78" width="195.17" height="183.52" fill="none" stroke-miterlimit="10" stroke-width="5" stroke="url(#u)"/></svg>